<?xml version="1.0" encoding="UTF-8"?>
<svg width="28px" height="27px" viewBox="0 0 28 27" version="1.1" xmlns="http://www.w3.org/2000/svg" xmlns:xlink="http://www.w3.org/1999/xlink">
    <title>Group</title>
    <g id="Page-1" stroke="none" stroke-width="1" fill="none" fill-rule="evenodd">
        <g id="Group" transform="translate(0.666015, 0.333685)">
            <ellipse id="Oval" fill="#FFFFFF" cx="13.33333" cy="13.33331" rx="13.33333" ry="13.33331"></ellipse>
            <g id="settings" transform="translate(5.583330, 5.583310)">
                <circle id="Oval" fill="#222222" cx="7.75" cy="7.75" r="2.11363636"></circle>
                <path d="M12.9636364,9.86363636 C12.7717559,10.2984044 12.8638263,10.8061866 13.1961364,11.1459091 L13.2384091,11.1881818 C13.503004,11.4524825 13.6516767,11.8111279 13.6516767,12.1851136 C13.6516767,12.5590994 13.503004,12.9177447 13.2384091,13.1820455 C12.9741084,13.4466404 12.615463,13.595313 12.2414773,13.595313 C11.8674915,13.595313 11.5088462,13.4466404 11.2445455,13.1820455 L11.2022727,13.1397727 C10.8625503,12.8074627 10.354768,12.7153923 9.92,12.9072727 C9.49412298,13.0897981 9.2173025,13.507797 9.21545455,13.9711364 L9.21545455,14.0909091 C9.21545455,14.8691285 8.58458306,15.5 7.80636364,15.5 C7.02814422,15.5 6.39727273,14.8691285 6.39727273,14.0909091 L6.39727273,14.0275 C6.38611033,13.5502908 6.0843642,13.128405 5.63636364,12.9636364 C5.20159563,12.7717559 4.69381338,12.8638263 4.35409091,13.1961364 L4.31181818,13.2384091 C4.04751746,13.503004 3.68887212,13.6516767 3.31488636,13.6516767 C2.9409006,13.6516767 2.58225527,13.503004 2.31795455,13.2384091 C2.05335962,12.9741084 1.90468698,12.615463 1.90468698,12.2414773 C1.90468698,11.8674915 2.05335962,11.5088462 2.31795455,11.2445455 L2.36022727,11.2022727 C2.69253732,10.8625503 2.78460773,10.354768 2.59272727,9.92 C2.41020189,9.49412298 1.99220297,9.2173025 1.52886364,9.21545455 L1.40909091,9.21545455 C0.630871489,9.21545455 0,8.58458306 0,7.80636364 C0,7.02814422 0.630871489,6.39727273 1.40909091,6.39727273 L1.4725,6.39727273 C1.94970919,6.38611033 2.37159499,6.0843642 2.53636364,5.63636364 C2.72824409,5.20159563 2.63617369,4.69381338 2.30386364,4.35409091 L2.26159091,4.31181818 C1.99699598,4.04751746 1.84832335,3.68887212 1.84832335,3.31488636 C1.84832335,2.9409006 1.99699598,2.58225527 2.26159091,2.31795455 C2.52589164,2.05335962 2.88453697,1.90468698 3.25852273,1.90468698 C3.63250849,1.90468698 3.99115382,2.05335962 4.25545455,2.31795455 L4.29772727,2.36022727 C4.63744974,2.69253732 5.145232,2.78460773 5.58,2.59272727 L5.63636364,2.59272727 C6.06224066,2.41020189 6.33906113,1.99220297 6.34090909,1.52886364 L6.34090909,1.40909091 C6.34090909,0.630871489 6.97178058,0 7.75,0 C8.52821942,0 9.15909091,0.630871489 9.15909091,1.40909091 L9.15909091,1.4725 C9.16093887,1.93583933 9.43775934,2.35383825 9.86363636,2.53636364 C10.2984044,2.72824409 10.8061866,2.63617369 11.1459091,2.30386364 L11.1881818,2.26159091 C11.4524825,1.99699598 11.8111279,1.84832335 12.1851136,1.84832335 C12.5590994,1.84832335 12.9177447,1.99699598 13.1820455,2.26159091 C13.4466404,2.52589164 13.595313,2.88453697 13.595313,3.25852273 C13.595313,3.63250849 13.4466404,3.99115382 13.1820455,4.25545455 L13.1397727,4.29772727 C12.8074627,4.63744974 12.7153923,5.145232 12.9072727,5.58 L12.9072727,5.63636364 C13.0897981,6.06224066 13.507797,6.33906113 13.9711364,6.34090909 L14.0909091,6.34090909 C14.8691285,6.34090909 15.5,6.97178058 15.5,7.75 C15.5,8.52821942 14.8691285,9.15909091 14.0909091,9.15909091 L14.0275,9.15909091 C13.5641607,9.16093887 13.1461617,9.43775934 12.9636364,9.86363636 Z" id="Path" stroke="#000000" stroke-width="2" stroke-linecap="round" stroke-linejoin="round"></path>
            </g>
        </g>
    </g>
</svg>